<svg xmlns="http://www.w3.org/2000/svg" viewBox="0 0 92.106 92.106"><path d="M46.053 92.105c25.434 0 46.053-20.619 46.053-46.053S71.486 0 46.053 0 0 20.619 0 46.053s20.619 46.053 46.053 46.053zm0-2.558c24.022 0 43.494-19.473 43.494-43.494S70.074 2.558 46.053 2.558 2.558 22.031 2.558 46.053s19.473 43.494 43.494 43.494zm1.704-48.319L59.682 7.443a40.82 40.82 0 0 0-13.629-2.326c-4.779 0-9.364.819-13.629 2.323l11.925 33.785a5.07 5.07 0 0 1 1.704-.292 5.07 5.07 0 0 1 1.704.292zm2.929 2.651L83.007 28.42A41.1 41.1 0 0 0 63.762 9.136L48.304 41.458c1.045.514 1.885 1.367 2.382 2.42zm.182 3.914l33.787 11.925c1.512-4.273 2.336-8.873 2.336-13.662 0-4.751-.808-9.313-2.298-13.555L50.906 44.425c.175.525.264 1.074.264 1.627a5.13 5.13 0 0 1-.302 1.737zm-2.612 2.881l15.458 32.321a41.1 41.1 0 0 0 19.245-19.207L50.637 48.33c-.511 1.025-1.349 1.849-2.382 2.344h0zm-3.868.22L32.462 84.681a40.86 40.86 0 0 0 13.591 2.31 40.86 40.86 0 0 0 13.591-2.31L47.718 50.893c-.522.179-1.082.276-1.666.276s-1.144-.097-1.666-.276zm-2.919-2.564L9.147 63.785a41.09 41.09 0 0 0 19.245 19.207L43.85 50.671a5.14 5.14 0 0 1-2.382-2.344zm-.266-3.907L7.414 32.498a40.85 40.85 0 0 0-2.298 13.555 40.87 40.87 0 0 0 2.336 13.662L41.24 47.79a5.07 5.07 0 0 1-.304-1.737c0-.554.09-1.104.266-1.63zm2.602-2.965L28.345 9.134A41.1 41.1 0 0 0 9.101 28.417l32.321 15.458a5.14 5.14 0 0 1 2.382-2.42z" fill-rule="evenodd" fill="#f8b500"/></svg>