<svg width="395.99999999999994" height="101.34462151394423" viewBox="0 0 369.8947368421052 94.66374269005848" class="css-1j8o68f"><defs id="SvgjsDefs2100"></defs><g id="SvgjsG2101" featurekey="symbolFeature-0" transform="matrix(2.5584795321637426,0,0,2.5584795321637426,0,0)" fill="#f8b500"><title xmlns="http://www.w3.org/2000/svg">lemon_slice</title><description xmlns="http://www.w3.org/2000/svg">Created with Sketch (http://www.bohemiancoding.com/sketch)</description><g xmlns="http://www.w3.org/2000/svg" stroke="none" stroke-width="1" fill="none" fill-rule="evenodd" xmlns:sketch="http://www.bohemiancoding.com/sketch/ns" sketch:type="MSPage"><path d="M18,36 C27.941126,36 36,27.941126 36,18 C36,8.05887401 27.941126,0 18,0 C8.05887401,0 0,8.05887401 0,18 C0,27.941126 8.05887401,36 18,36 Z M18,35 C27.3888412,35 35,27.3888412 35,18 C35,8.61115879 27.3888412,1 18,1 C8.61115879,1 1,8.61115879 1,18 C1,27.3888412 8.61115879,35 18,35 Z M18.6658216,16.1135053 L23.3265732,2.90804267 C21.6603296,2.31995639 19.8675298,2 18,2 C16.1324702,2 14.3396703,2.3199564 12.6734268,2.90804268 L17.3341783,16.1135054 C17.5424503,16.0399961 17.7665543,16 18,16 C18.2334412,16 18.4575411,16.0399945 18.6658216,16.1135053 Z M19.8104568,17.1490373 L32.4432993,11.1072431 C30.8705941,7.81766805 28.2071586,5.14930176 24.9211659,3.57031721 L18.8793579,16.2031884 C19.287092,16.4031093 19.6167932,16.7377271 19.8104568,17.1490373 Z M19.881648,18.6793966 L33.0871538,23.3401634 C33.6783011,21.6700794 34,19.8726081 34,18 C34,16.1430872 33.6836712,14.3600569 33.1019611,12.7018569 L19.8963096,17.362675 C19.9635584,17.5628489 20,17.7771687 20,18 C20,18.2385212 19.9582458,18.4672903 19.881648,18.6793966 Z M18.8610092,19.8056922 L24.9027867,32.4384999 C28.1844126,30.8667797 30.8468793,28.2092341 32.4248635,24.9311862 L19.7918883,18.8893284 C19.5930701,19.289152 19.2643733,19.6130103 18.861009,19.8056923 L18.8610092,19.8056922 Z M17.3490273,19.8916694 L12.6882575,33.0971834 C14.3503067,33.6819389 16.1380098,34 18,34 C19.8619902,34 21.6496933,33.6819389 23.3117425,33.0971834 L18.6509729,19.8916693 C18.446904,19.9618804 18.2279037,20 18,20 C17.7720964,20 17.5530961,19.9618804 17.3490273,19.8916694 Z M16.2081118,18.8893285 L3.57513647,24.9311862 C5.15312074,28.2092341 7.8155874,30.8667797 11.0972133,32.4384999 L17.138991,19.8056923 C16.7356256,19.6130092 16.4069297,19.2891514 16.2081118,18.8893285 Z M16.1036903,17.3626752 L2.89803886,12.7018569 C2.31632883,14.3600569 2,16.1430872 2,18 C2,19.8726081 2.32169888,21.6700794 2.91284618,23.3401634 L16.1183521,18.6793967 C16.0417542,18.4672904 16,18.2385213 16,18 C16,17.7771688 16.0364416,17.562849 16.1036903,17.3626752 Z M17.120642,16.2031885 L11.0788341,3.57031722 C7.7928414,5.14930177 5.12940593,7.81766806 3.55670067,11.1072431 L16.1895431,17.1490374 C16.3832067,16.7377272 16.7129079,16.4031094 17.120642,16.2031885 Z" fill="#f8b500" sketch:type="MSShapeGroup"></path></g></g><g id="SvgjsG2102" featurekey="nameFeature-0" transform="matrix(1.440430889817733,0,0,1.440430889817733,109.69531054194908,11.381826449210138)" fill="#393e46"><path d="M1.6 40 l0 -31.2 l7.96 0 l0 23.48 l14.96 0 l0 7.72 l-22.92 0 z M27.720000000000002 28.36 c0 -6.16 5.24 -11.52 11.96 -11.52 c6.68 0 11.92 5.36 11.92 11.52 c0 0.84 -0.08 1.64 -0.24 2.4 l-16.68 0.04 c0.88 1.8 2.72 3.08 5 3.08 c1.56 0 2.96 -0.64 3.92 -1.6 l7.28 0 c-1.64 4.36 -6 7.64 -11.2 7.64 c-6.72 0 -11.96 -5.2 -11.96 -11.4 l0 -0.16 z M34.88 25.6 l-0.2 0.56 l10.12 0 l-0.32 -0.56 c-0.96 -1.6 -2.68 -2.72 -4.8 -2.72 s-3.88 1.12 -4.8 2.72 z M78.88 16.68 c7.52 0 9.56 4.88 9.56 10.92 l0 12.4 l-6.48 0 l-0.04 -12.64 c0 -2.32 -1.32 -4.6 -3.52 -4.6 c-1.88 0 -3.52 0.96 -3.52 5.4 l0 11.84 l-5.72 0 l0 -12.6 c0 -2 -1.8 -4.64 -3.92 -4.64 c-2.52 0 -4 3.12 -4 5.4 l0 11.84 l-6.44 0 l0 -0.36 l0.04 -22.84 l6.36 0 l0 1.08 c1.2 -0.76 2.52 -1.2 4.04 -1.2 c2.8 0 5.48 1.44 6.72 3.8 c1.24 -2.44 4.16 -3.8 6.92 -3.8 z M91.64 28.36 c0 6.2 5.24 11.56 11.96 11.56 c6.68 0 11.92 -5.36 11.92 -11.56 c0 -6.16 -5.24 -11.52 -11.92 -11.52 c-6.72 0 -11.96 5.36 -11.96 11.52 z M109.12 28.36 c0 3 -2.32 5.52 -5.52 5.52 s-5.56 -2.56 -5.56 -5.52 c0 -2.92 2.36 -5.48 5.56 -5.48 s5.52 2.52 5.52 5.48 z M118.76 17.04 c0 7.52 -0.04 15.04 -0.04 22.6 l0 0.36 l6.48 0 l0 -11.84 c0 -2.88 2.52 -5.4 5.6 -5.4 c2.96 0 5.28 2.28 5.6 5 c0.04 0.4 0 0.84 0 1.24 l0.04 2.92 l0 8 l6.48 0.08 l0 -12.04 c0 -2.92 -1.48 -5.8 -3.6 -7.84 c-2.32 -2.24 -5.16 -3.44 -8.52 -3.44 c-2 0 -3.92 0.44 -5.68 1.32 l0 -1.2 l-6.36 0 l0 0.24 z M146.12 12.399999999999999 c0 1.88 1.52 3.56 3.64 3.56 c2.08 0 3.68 -1.68 3.68 -3.56 c0 -1.84 -1.6 -3.64 -3.68 -3.64 c-2.12 0 -3.64 1.8 -3.64 3.64 z M146.52 16.84 l0 23.16 l6.48 0 l0 -23.16 l-6.48 0 z M160.24 36.48 c2.32 2.2 5.08 3.44 8.4 3.44 c6.16 0 11.24 -4.4 11.96 -10.08 l0.04 -0.44 l-6.52 0 l-0.08 0.32 c-0.56 2.44 -2.72 4.08 -5.4 4.08 c-3.2 0 -5.52 -2.52 -5.52 -5.52 c0 -2.96 2.32 -5.48 5.52 -5.48 c2.4 0 4.36 1.28 5.2 3.36 l0.08 0.24 l6.64 0 l-0.08 -0.44 c-1 -5.32 -6.12 -9.28 -11.84 -9.28 c-6.68 0 -12 5.44 -12 11.6 c0 3.2 1.2 5.96 3.6 8.2 z "></path></g></svg>