<svg width="396" height="104.38336914147852" viewBox="0 0 339.4210379555027 89.46947348306321" class="css-1j8o68f"><defs id="SvgjsDefs5264"></defs><g id="SvgjsG5265" featurekey="symbolFeature-0" transform="matrix(2.4180938779206276,0,0,2.4180938779206276,0,0)" fill="#f5c500"><title xmlns="http://www.w3.org/2000/svg">lemon_slice</title><description xmlns="http://www.w3.org/2000/svg">Created with Sketch (http://www.bohemiancoding.com/sketch)</description><g xmlns="http://www.w3.org/2000/svg" stroke="none" stroke-width="1" fill="none" fill-rule="evenodd" xmlns:sketch="http://www.bohemiancoding.com/sketch/ns" sketch:type="MSPage"><path d="M18,36 C27.941126,36 36,27.941126 36,18 C36,8.05887401 27.941126,0 18,0 C8.05887401,0 0,8.05887401 0,18 C0,27.941126 8.05887401,36 18,36 Z M18,35 C27.3888412,35 35,27.3888412 35,18 C35,8.61115879 27.3888412,1 18,1 C8.61115879,1 1,8.61115879 1,18 C1,27.3888412 8.61115879,35 18,35 Z M18.6658216,16.1135053 L23.3265732,2.90804267 C21.6603296,2.31995639 19.8675298,2 18,2 C16.1324702,2 14.3396703,2.3199564 12.6734268,2.90804268 L17.3341783,16.1135054 C17.5424503,16.0399961 17.7665543,16 18,16 C18.2334412,16 18.4575411,16.0399945 18.6658216,16.1135053 Z M19.8104568,17.1490373 L32.4432993,11.1072431 C30.8705941,7.81766805 28.2071586,5.14930176 24.9211659,3.57031721 L18.8793579,16.2031884 C19.287092,16.4031093 19.6167932,16.7377271 19.8104568,17.1490373 Z M19.881648,18.6793966 L33.0871538,23.3401634 C33.6783011,21.6700794 34,19.8726081 34,18 C34,16.1430872 33.6836712,14.3600569 33.1019611,12.7018569 L19.8963096,17.362675 C19.9635584,17.5628489 20,17.7771687 20,18 C20,18.2385212 19.9582458,18.4672903 19.881648,18.6793966 Z M18.8610092,19.8056922 L24.9027867,32.4384999 C28.1844126,30.8667797 30.8468793,28.2092341 32.4248635,24.9311862 L19.7918883,18.8893284 C19.5930701,19.289152 19.2643733,19.6130103 18.861009,19.8056923 L18.8610092,19.8056922 Z M17.3490273,19.8916694 L12.6882575,33.0971834 C14.3503067,33.6819389 16.1380098,34 18,34 C19.8619902,34 21.6496933,33.6819389 23.3117425,33.0971834 L18.6509729,19.8916693 C18.446904,19.9618804 18.2279037,20 18,20 C17.7720964,20 17.5530961,19.9618804 17.3490273,19.8916694 Z M16.2081118,18.8893285 L3.57513647,24.9311862 C5.15312074,28.2092341 7.8155874,30.8667797 11.0972133,32.4384999 L17.138991,19.8056923 C16.7356256,19.6130092 16.4069297,19.2891514 16.2081118,18.8893285 Z M16.1036903,17.3626752 L2.89803886,12.7018569 C2.31632883,14.3600569 2,16.1430872 2,18 C2,19.8726081 2.32169888,21.6700794 2.91284618,23.3401634 L16.1183521,18.6793967 C16.0417542,18.4672904 16,18.2385213 16,18 C16,17.7771688 16.0364416,17.562849 16.1036903,17.3626752 Z M17.120642,16.2031885 L11.0788341,3.57031722 C7.7928414,5.14930177 5.12940593,7.81766806 3.55670067,11.1072431 L16.1895431,17.1490374 C16.3832067,16.7377272 16.7129079,16.4031094 17.120642,16.2031885 Z" fill="#f5c500" sketch:type="MSShapeGroup"></path></g></g><g id="SvgjsG5266" featurekey="nameLeftFeature-0" transform="matrix(2.3029456962994233,0,0,2.3029456962994233,106.99999890186992,14.76162913102792)" fill="#f5c500"><path d="M1.48 4.880000000000001 c0.8 0 1.46 0.66 1.46 1.46 l0 10.16 c0 0.3 0.26 0.56 0.56 0.56 l6.02 0 c0.82 0 1.48 0.66 1.48 1.46 c0 0.82 -0.66 1.48 -1.48 1.48 l-6.02 0 c-0.34 0 -0.6 -0.28 -0.6 -0.62 c0 -0.32 0.26 -0.6 0.6 -0.6 l6.02 0 c0.14 0 0.26 -0.12 0.26 -0.26 s-0.12 -0.24 -0.26 -0.24 l-6.02 0 c-0.98 0 -1.78 -0.8 -1.78 -1.78 l0 -10.14 c0 -0.14 -0.1 -0.26 -0.24 -0.26 c-0.16 0 -0.26 0.12 -0.26 0.26 l0 6.06 c0 0.34 -0.28 0.62 -0.62 0.62 c-0.32 0 -0.6 -0.28 -0.6 -0.62 l0 -6.08 c0 -0.8 0.66 -1.46 1.48 -1.46 z M16.1 4.880000000000001 l7.42 0 c0.8 0 1.46 0.66 1.46 1.46 s-0.62 1.48 -1.42 1.48 l-7.46 0 c-0.3 0 -0.56 0.24 -0.56 0.56 c0 0.3 0.26 0.56 0.56 0.56 c0.34 0 0.62 0.26 0.62 0.6 s-0.28 0.62 -0.62 0.62 c-0.98 0 -1.76 -0.8 -1.76 -1.78 s0.78 -1.78 1.76 -1.78 l7.42 0 c0.14 0 0.24 -0.12 0.24 -0.26 s-0.1 -0.24 -0.24 -0.24 l-7.42 0 c-1.26 0 -2.28 1.02 -2.28 2.28 s1.02 2.28 2.28 2.28 l5.38 0 c0.98 0 1.78 0.8 1.78 1.8 c0 0.98 -0.8 1.76 -1.78 1.76 l-5.38 0 c-1.26 0 -2.28 1.02 -2.28 2.28 s1.02 2.28 2.28 2.28 l8.26 0 c0.34 0 0.62 0.28 0.62 0.62 s-0.28 0.6 -0.62 0.6 l-8.26 0 c-1.94 0 -3.5 -1.56 -3.5 -3.5 c0 -1.92 1.56 -3.5 3.5 -3.5 l5.38 0 c0.32 0 0.56 -0.24 0.56 -0.54 c0 -0.34 -0.24 -0.58 -0.56 -0.58 l-5.38 0 c-1.92 0 -3.5 -1.58 -3.5 -3.5 c0 -1.94 1.58 -3.5 3.5 -3.5 z M16.1 14.74 l5.38 0 c0.34 0 0.62 0.26 0.62 0.6 s-0.28 0.62 -0.62 0.62 l-5.38 0 c-0.3 0 -0.56 0.24 -0.56 0.54 c0 0.32 0.26 0.56 0.56 0.56 c0.34 0 0.6 0.28 0.6 0.62 c0 0.32 -0.26 0.6 -0.6 0.6 c-0.98 0 -1.78 -0.8 -1.78 -1.78 s0.8 -1.76 1.78 -1.76 z"></path></g><g id="SvgjsG5267" featurekey="nameRightFeature-0" transform="matrix(2.217868897417767,0,0,2.217868897417767,167.00391778081155,15.709093899910517)" fill="#f5c500"><path d="M14.94 9.74 l-5.1 6.1 l-5.06 -6.1 l0 10.26 l-2.14 0 l0 -12.82 l-1.74 -2.1 l2.82 0 l6.1 7.32 l6.18 -7.32 l2.82 0 l-1.74 2.1 l0 12.82 l-2.14 0 l0 -10.26 z M34.82 12.440000000000001 q0 -1.6 -0.82 -2.9 q-0.78 -1.26 -2.13 -1.98 t-2.93 -0.72 q-1.64 0 -2.99 0.74 t-2.11 2.02 q-0.78 1.34 -0.78 2.98 q0 1.56 0.84 2.88 q0.8 1.24 2.15 1.97 t2.92 0.73 t2.92 -0.76 t2.13 -2.04 q0.8 -1.34 0.8 -2.92 z M36.980000000000004 12.559999999999999 q0 2.16 -1.12 3.98 q-1.08 1.74 -2.93 2.77 t-3.99 1.03 q-2.22 0 -4.08 -1.08 q-1.82 -1.04 -2.86 -2.86 q-1.08 -1.86 -1.08 -4.08 q0 -2.14 1.14 -3.94 q1.08 -1.72 2.93 -2.73 t3.97 -1.01 q2.18 0 4.04 1.06 q1.82 1.04 2.88 2.82 q1.1 1.86 1.1 4.04 z M40.82 7.18 l-1.74 -2.1 l2.82 0 l9.58 11.4 l0 -11.4 l2.2 0 l0 14.92 l-2.16 0 l-8.56 -10.26 l0 10.26 l-2.14 0 l0 -12.82 z M60.22 20 l-2.14 0 l0 -14.92 l2.14 0 l0 14.92 z M77.39999999999999 7 l-1.4 1.64 q-0.82 -0.84 -1.96 -1.32 t-2.4 -0.48 q-1.64 0 -2.99 0.74 t-2.11 2.02 q-0.78 1.34 -0.78 2.98 q0 1.56 0.84 2.88 q0.8 1.24 2.15 1.97 t2.91 0.73 q1.44 0 2.68 -0.62 t2.06 -1.72 l1.34 1.82 q-1.14 1.28 -2.73 1.99 t-3.37 0.71 q-2.22 0 -4.08 -1.08 q-1.82 -1.04 -2.86 -2.86 q-1.08 -1.86 -1.08 -4.08 q0 -2.14 1.14 -3.94 q1.08 -1.72 2.93 -2.73 t3.97 -1.01 q1.66 0 3.16 0.64 q1.46 0.6 2.58 1.72 z"></path></g></svg>