<svg xmlns="http://www.w3.org/2000/svg" width="40" height="40" viewBox="0 0 40 40" fill="none">
  <path d="M19.95 36.6667C29.1547 36.6667 36.6166 29.2048 36.6166 20C36.6166 10.7953 29.1547 3.33334 19.95 3.33334C10.7452 3.33334 3.28329 10.7953 3.28329 20C3.28329 29.2048 10.7452 36.6667 19.95 36.6667Z" stroke="#FAFA33" stroke-width="1.5" stroke-linecap="round" stroke-linejoin="round"/>
  <path d="M17.8667 24.2167V15.7833C17.8667 14.9833 17.5333 14.6667 16.6833 14.6667H14.5167C13.6667 14.6667 13.3333 14.9833 13.3333 15.7833V24.2167C13.3333 25.0167 13.6667 25.3333 14.5167 25.3333H16.6667C17.5333 25.3333 17.8667 25.0167 17.8667 24.2167Z" fill="white" stroke="white" stroke-width="1.5" stroke-linecap="round" stroke-linejoin="round"/>
  <path d="M26.6666 24.2167V15.7833C26.6666 14.9833 26.3333 14.6667 25.4833 14.6667H23.3333C22.4833 14.6667 22.15 14.9833 22.15 15.7833V24.2167C22.15 25.0167 22.4833 25.3333 23.3333 25.3333H25.4833C26.3333 25.3333 26.6666 25.0167 26.6666 24.2167Z" fill="white" stroke="white" stroke-width="1.5" stroke-linecap="round" stroke-linejoin="round"/>
</svg>